<?xml version="1.0" standalone="no"?>
<!DOCTYPE svg PUBLIC "-//W3C//DTD SVG 20010904//EN"
 "http://www.w3.org/TR/2001/REC-SVG-20010904/DTD/svg10.dtd">
<svg version="1.0" xmlns="http://www.w3.org/2000/svg"
 width="260.000000pt" height="260.000000pt" viewBox="0 0 260.000000 260.000000"
 preserveAspectRatio="xMidYMid meet">
<metadata>
Created by potrace 1.11, written by Peter Selinger 2001-2013
</metadata>
<g transform="translate(0.000000,260.000000) scale(0.100000,-0.100000)"
fill="#000000" stroke="none">
<path d="M0 1300 l0 -1300 1300 0 1300 0 0 1300 0 1300 -1300 0 -1300 0 0
-1300z m1353 1235 c135 -23 271 -78 421 -169 112 -68 153 -47 215 107 19 47
27 57 47 57 l24 0 -2 -402 c-3 -394 -3 -403 -23 -403 -16 0 -27 20 -57 104
-56 157 -110 257 -193 362 -169 213 -336 299 -584 299 -172 0 -287 -40 -391
-136 -70 -66 -105 -121 -126 -206 -33 -127 6 -256 98 -329 99 -78 185 -110
698 -259 283 -83 372 -115 460 -168 260 -157 368 -480 262 -780 -39 -110 -83
-181 -174 -277 -197 -209 -471 -310 -769 -284 -184 16 -361 77 -529 183 -185
118 -207 112 -287 -74 -32 -75 -42 -90 -60 -90 l-23 0 0 550 0 550 23 0 c20 0
25 -11 51 -108 117 -437 314 -755 542 -874 206 -108 465 -117 659 -23 200 97
305 257 305 464 0 147 -48 238 -168 315 -112 73 -169 93 -502 182 -438 117
-582 174 -698 280 -152 138 -228 356 -188 544 84 395 526 662 969 585z"/>
</g>
</svg>
